<?xml version="1.0" encoding="UTF-8" standalone="no"?>
<!-- Created with Inkscape (http://www.inkscape.org/) -->

<svg
   viewBox="0 0 285.74999 71.292"
   version="1.1"
   id="svg1"
   inkscape:version="1.4 (86a8ad7, 2024-10-11)"
   sodipodi:docname="switchback-logo.svg"
   width="285.75"
   height="71.292"
   xmlns:inkscape="http://www.inkscape.org/namespaces/inkscape"
   xmlns:sodipodi="http://sodipodi.sourceforge.net/DTD/sodipodi-0.dtd"
   xmlns="http://www.w3.org/2000/svg"
   xmlns:svg="http://www.w3.org/2000/svg">
  <sodipodi:namedview
     id="namedview1"
     pagecolor="#ffffff"
     bordercolor="#000000"
     borderopacity="0.25"
     inkscape:showpageshadow="2"
     inkscape:pageopacity="0.0"
     inkscape:pagecheckerboard="0"
     inkscape:deskcolor="#d1d1d1"
     inkscape:document-units="mm"
     inkscape:zoom="1.972935"
     inkscape:cx="33.452699"
     inkscape:cy="77.802867"
     inkscape:window-width="1920"
     inkscape:window-height="1001"
     inkscape:window-x="-9"
     inkscape:window-y="-9"
     inkscape:window-maximized="1"
     inkscape:current-layer="layer1" />
  <defs
     id="defs1">
    <rect
       x="68.813469"
       y="84.583221"
       width="444.42032"
       height="239.41351"
       id="rect1" />
    <rect
       x="68.813469"
       y="84.583221"
       width="444.42032"
       height="239.41351"
       id="rect1-4" />
  </defs>
  <g
     inkscape:label="Layer 1"
     inkscape:groupmode="layer"
     id="layer1">
    <path
       style="fill:#7d7d7d;fill-opacity:1;stroke:#7d7d7d;stroke-width:2.70562;stroke-dasharray:none;stroke-opacity:1"
       d="m 78.179454,25.593726 -2.527758,7.583281"
       id="path5" />
    <path
       d="m 35.874535,45.326291 c 0,2.183769 -0.793052,3.884806 -2.379155,5.103112 -1.586103,1.218318 -3.723896,1.827471 -6.413377,1.827471 -1.37922,0 -2.655,-0.103441 -3.827337,-0.310324 -1.172337,-0.206883 -2.149285,-0.494216 -2.930843,-0.862009 v -2.965328 c 0.827532,0.367793 1.850454,0.701098 3.068766,0.999939 1.241298,0.298828 2.517077,0.448242 3.827337,0.448242 1.838961,0 3.218182,-0.356297 4.137662,-1.068892 0.942467,-0.712606 1.413701,-1.678057 1.413701,-2.896363 0,-0.804552 -0.172403,-1.48267 -0.517208,-2.034354 -0.344804,-0.551684 -0.942467,-1.057408 -1.792987,-1.517147 -0.827532,-0.482731 -1.988377,-0.988442 -3.482532,-1.517134 -2.091818,-0.758568 -3.677922,-1.689542 -4.758311,-2.792926 -1.057402,-1.103376 -1.586104,-2.609026 -1.586104,-4.516947 0,-1.31026 0.333313,-2.42513 0.999936,-3.34461 0.666623,-0.942467 1.586103,-1.666558 2.75844,-2.172272 1.195325,-0.505715 2.563052,-0.758572 4.103182,-0.758572 1.356233,0 2.597532,0.126429 3.723895,0.379286 1.126364,0.252857 2.149286,0.586169 3.068766,0.999935 l -0.965454,2.654999 c -0.85052,-0.367792 -1.781494,-0.678117 -2.792921,-0.930974 -0.988442,-0.252857 -2.022857,-0.379285 -3.103247,-0.379285 -1.54013,0 -2.700974,0.333311 -3.482532,0.999934 -0.781558,0.643637 -1.172338,1.505649 -1.172338,2.586039 0,0.827532 0.172403,1.517143 0.517207,2.068831 0.344805,0.551687 0.907988,1.045909 1.689546,1.482663 0.781559,0.436752 1.838961,0.907986 3.172208,1.4137 1.448182,0.5287 2.666493,1.103377 3.654934,1.724026 1.011429,0.597669 1.77,1.321759 2.275714,2.172272 0.528702,0.850513 0.793052,1.919417 0.793052,3.206688 z m 19.97283,-3.861814 C 55.548536,40.522007 55.284184,39.60253 55.054313,38.706032 54.84743,37.786552 54.686521,37.073955 54.571586,36.56824 h -0.137922 c -0.09195,0.505715 -0.241363,1.218312 -0.448246,2.137792 -0.206883,0.896498 -0.471234,1.827472 -0.793052,2.792922 l -3.31013,10.378631 H 46.434184 L 41.365549,33.396034 h 3.137727 l 2.551557,9.861426 c 0.252857,0.988443 0.494222,1.98837 0.724091,2.999805 0.229871,1.011435 0.39078,1.850452 0.482728,2.517074 h 0.137921 c 0.09195,-0.390774 0.195391,-0.873505 0.310325,-1.448182 0.137922,-0.574677 0.287338,-1.172334 0.448248,-1.792983 0.160909,-0.64363 0.321818,-1.218306 0.482727,-1.724029 l 3.275648,-10.413111 h 3.310133 l 3.1722,10.413111 c 0.252855,0.781559 0.494227,1.632084 0.72409,2.551562 0.252856,0.919477 0.425263,1.712533 0.517208,2.379155 h 0.13793 c 0.069,-0.574677 0.218379,-1.367721 0.448243,-2.379155 0.252855,-1.011435 0.517207,-2.045851 0.793055,-3.103247 l 2.586039,-9.861426 h 3.103246 l -5.1376,18.481551 H 59.019576 Z M 78.41249,21.798042 c 0.459739,0 0.862021,0.160909 1.206822,0.482728 0.367794,0.298831 0.551685,0.781558 0.551685,1.448181 0,0.643636 -0.183891,1.126364 -0.551685,1.448182 -0.344801,0.321817 -0.747083,0.482726 -1.206822,0.482726 -0.505711,0 -0.930973,-0.160909 -1.275775,-0.482726 -0.344801,-0.321818 -0.517207,-0.804546 -0.517207,-1.448182 0,-0.666623 0.172406,-1.14935 0.517207,-1.448181 0.344802,-0.321819 0.770064,-0.482728 1.275775,-0.482728 z M 77.544204,33.430514 V 51.912073 H 74.509923 V 33.430514 Z M 93.06904,49.774277 c 0.459739,0 0.930974,-0.03444 1.413705,-0.103441 0.482731,-0.09192 0.873505,-0.183891 1.172334,-0.275848 v 2.310202 c -0.321821,0.160911 -0.78156,0.287333 -1.379217,0.379278 -0.597669,0.114961 -1.172345,0.172406 -1.724029,0.172406 -0.965451,0 -1.861948,-0.16091 -2.689481,-0.482731 -0.804551,-0.344801 -1.459677,-0.930974 -1.965389,-1.758506 -0.505711,-0.827532 -0.758567,-1.98837 -0.758567,-3.482524 V 35.775189 h -2.620527 v -1.448181 l 2.655003,-1.206819 1.206822,-3.930778 h 1.792983 v 4.241103 h 5.344484 v 2.344675 h -5.344484 v 10.688959 c 0,1.126361 0.264352,1.965389 0.793056,2.517074 0.551684,0.528704 1.252794,0.793055 2.103307,0.793055 z m 17.17992,2.482597 c -1.63208,0 -3.09176,-0.333316 -4.37903,-0.999938 -1.26428,-0.666622 -2.26422,-1.701038 -2.9998,-3.103247 -0.7126,-1.402209 -1.0689,-3.195191 -1.0689,-5.37896 0,-2.275714 0.37929,-4.126167 1.13786,-5.551358 0.75857,-1.425196 1.7815,-2.471105 3.06877,-3.137728 1.31026,-0.666623 2.79292,-0.999934 4.44799,-0.999934 0.94246,0 1.85045,0.103442 2.72395,0.310325 0.87351,0.183895 1.58612,0.413765 2.1378,0.689609 l -0.93097,2.517078 c -0.55169,-0.206883 -1.19533,-0.402272 -1.93092,-0.586169 -0.73558,-0.183896 -1.4252,-0.275844 -2.06883,-0.275844 -3.63195,0 -5.44792,2.333181 -5.44792,6.999545 0,2.229741 0.43676,3.942274 1.31026,5.1376 0.8965,1.172334 2.21825,1.758506 3.96526,1.758506 1.01143,0 1.89643,-0.103441 2.655,-0.310324 0.78156,-0.206883 1.49415,-0.459739 2.1378,-0.758579 v 2.68948 c -0.62065,0.32182 -1.31027,0.56318 -2.06884,0.72409 -0.73558,0.183903 -1.63208,0.275848 -2.68948,0.275848 z m 15.66276,-18.86084 c 0,0.91948 -0.0575,1.781492 -0.17241,2.586038 h 0.20688 c 0.59767,-0.942467 1.40221,-1.655064 2.41365,-2.137792 1.03441,-0.482728 2.14928,-0.724091 3.3446,-0.724091 2.25274,0 3.94228,0.540195 5.06864,1.620585 1.12636,1.057401 1.68954,2.769933 1.68954,5.137592 v 12.033707 h -2.9998 V 40.085249 c 0,-2.965322 -1.37922,-4.447983 -4.13767,-4.447983 -2.06883,0 -3.49402,0.586169 -4.27557,1.758506 -0.75857,1.149351 -1.13786,2.804415 -1.13786,4.965191 v 9.55111 h -3.03428 V 25.706878 h 3.03428 z"
       id="text1"
       style="font-size:29.3333px;letter-spacing:2.97px;word-spacing:0px;white-space:pre;fill:none;stroke:#ff0303;stroke-width:4.44273"
       aria-label="Switch"
       sodipodi:nodetypes="sssscccscsscccsccsscccscssscccscccccccccccsccccccccccccccccccscscssscscccccsccccscssccccccccccscssccsscscccssscsccccsscccscsccsscsccccs" />
    <path
       style="font-size:29.3333px;letter-spacing:2.97px;word-spacing:0px;white-space:pre;stroke:#22e200;stroke-width:4.44273"
       d="m 150.60303,32.577421 q 0,1.172337 -0.069,2.206751 -0.0345,0.999933 -0.10344,1.586101 h 0.1724 q 0.79305,-1.172336 2.17227,-1.965387 1.37922,-0.793051 3.55149,-0.793051 3.44805,0 5.51688,2.413633 2.10331,2.379153 2.10331,7.137457 0,4.758311 -2.10331,7.171943 -2.10331,2.413632 -5.51688,2.413632 -2.17227,0 -3.55149,-0.793056 -1.37922,-0.793044 -2.17227,-1.896424 h -0.24136 l -0.62065,2.344679 h -2.17227 V 26.198533 h 3.03429 z m 5.20655,3.551489 q -2.93084,0 -4.0687,1.689543 -1.13785,1.689542 -1.13785,5.241031 v 0.137918 q 0,3.413571 1.10337,5.241042 1.13786,1.792983 4.17214,1.792983 2.48259,0 3.68941,-1.827472 1.2413,-1.827459 1.2413,-5.275507 0,-6.999538 -4.99967,-6.999538 z m 23.45533,-2.517075 q 3.3791,0 4.99967,1.48266 1.62059,1.482661 1.62059,4.723824 v 12.58538 h -2.20676 l -0.58616,-2.620527 h -0.13793 q -1.20681,1.517147 -2.55155,2.241237 -1.31026,0.724091 -3.65493,0.724091 -2.51707,0 -4.17214,-1.310263 -1.65506,-1.34474 -1.65506,-4.172139 0,-2.758433 2.17227,-4.241091 2.17227,-1.517147 6.68921,-1.655065 l 3.13772,-0.103441 V 40.16312 q 0,-2.310187 -0.99992,-3.206678 -0.99994,-0.896493 -2.82741,-0.896493 -1.44818,0 -2.75844,0.448247 -1.31025,0.413765 -2.44811,0.965452 l -0.93097,-2.275711 q 1.20681,-0.655128 2.86188,-1.103375 1.65506,-0.482727 3.44804,-0.482727 z m 0.8965,9.861415 q -3.44805,0.137918 -4.79279,1.10338 -1.31026,0.965451 -1.31026,2.723957 0,1.551623 0.93098,2.275714 0.96545,0.724079 2.44811,0.724079 2.34467,0 3.89629,-1.275775 1.55163,-1.310252 1.55163,-3.999732 v -1.655065 z m 22.352,9.27525 q -2.44812,0 -4.37902,-0.999939 -1.89643,-0.999927 -2.99981,-3.103234 -1.06889,-2.103319 -1.06889,-5.37896 0,-3.413571 1.13786,-5.551355 1.13786,-2.137789 3.06876,-3.137723 1.96539,-0.999934 4.44798,-0.999934 1.4137,0 2.72396,0.310324 1.31025,0.275844 2.13778,0.68961 l -0.93097,2.517075 q -0.82753,-0.310325 -1.9309,-0.586168 -1.10338,-0.275845 -2.06883,-0.275845 -5.44791,0 -5.44791,6.999539 0,3.344606 1.31026,5.137589 1.34473,1.758506 3.96524,1.758506 1.51715,0 2.65501,-0.310325 1.17233,-0.310324 2.13778,-0.758567 v 2.689468 q -0.93097,0.482731 -2.06882,0.724091 -1.10338,0.275848 -2.68948,0.275848 z m 15.62825,-12.861216 q 0,0.551684 -0.069,1.448182 -0.0344,0.896485 -0.069,1.551623 h 0.13792 q 0.20689,-0.275848 0.62065,-0.793056 0.41377,-0.517208 0.82753,-1.034415 0.44826,-0.551685 0.75858,-0.896498 l 5.89616,-6.240961 h 3.55149 l -7.48227,7.896026 7.99948,10.585514 h -3.65493 l -6.41337,-8.620125 -2.10332,1.827471 v 6.792654 h -2.99979 V 26.198533 h 2.99979 z"
       id="text1-8"
       aria-label="back" />
    <path
       d="m 248.66081,51.37427 6.97813,-0.07841 c 5.16879,-0.05808 9.33082,-4.565909 9.33082,-9.528251 v -4.850638 c 0,-4.962342 -4.16172,-8.958044 -9.33082,-8.958044 h -17.69225"
       style="fill:none;stroke:#f90000;stroke-width:8.47966;stroke-dasharray:none;stroke-opacity:1"
       id="path3"
       sodipodi:nodetypes="cssssc" />
    <path
       style="fill:#f90000;fill-opacity:1;stroke:#f90000;stroke-width:0;stroke-dasharray:none;stroke-opacity:1"
       d="M 251.27008,44.126437 V 57.606388 L 238.38726,50.99686 Z"
       id="path4"
       sodipodi:nodetypes="cccc" />
  </g>
</svg>
